# xmcd
#
# Track frame offsets:
#	150
#	16107
#	33939
#	48871
#	69581
#	85563
#	101088
#	116545
#	132019
#	149471
#	164583
#	181651
#	198665
#	213746
#	231162
#
# Disc length: 3289 seconds
#
# Revision: 3
# Processed by: cddbd v1.5.2PL0 Copyright (c) Steve Scherf et al.
# Submitted via: EasyCDDAExtractor 15.3.0.1
#
DISCID=ca0cd70f
DTITLE=Britney Spears - The Essential Britney Spears - CD 1
DYEAR=2013
DGENRE=Pop
TTITLE0=Baby One More Time
TTITLE1=Sometimes
TTITLE2=(You Drive Me) Crazy (The Stop Remix!)
TTITLE3=From The Bottom Of My Broken Heart
TTITLE4=Oops!...I Did It Again
TTITLE5=Lucky
TTITLE6=Stronger
TTITLE7=I'm A Slave 4 U
TTITLE8=I'm Not A Girl, Not Yet A Woman
TTITLE9=Overprotected (The Darkchild Remix)
TTITLE10=Boys (The Co-Ed Remix Featuring Pharrell Williams Of N.E.R.D.)
TTITLE11=Me Against The Music (Featuring Madonna)
TTITLE12=Toxic
TTITLE13=Everytime
TTITLE14=Outrageous
EXTD=YEAR: 2013
EXTT0=
EXTT1=
EXTT2=
EXTT3=
EXTT4=
EXTT5=
EXTT6=
EXTT7=
EXTT8=
EXTT9=
EXTT10=
EXTT11=
EXTT12=
EXTT13=
EXTT14=
PLAYORDER=
